<?xml version="1.0" encoding="utf-8"?>
<!-- Generator: Adobe Illustrator 13.0.0, SVG Export Plug-In . SVG Version: 6.00 Build 14576)  -->
<!DOCTYPE svg PUBLIC "-//W3C//DTD SVG 1.1//EN" "http://www.w3.org/Graphics/SVG/1.1/DTD/svg11.dtd">
<svg version="1.1" id="Layer_1" xmlns="http://www.w3.org/2000/svg" xmlns:xlink="http://www.w3.org/1999/xlink" x="0px" y="0px"
	 width="1555.591px" height="1555.592px" viewBox="0 0 1555.591 1555.592" enable-background="new 0 0 1555.591 1555.592"
	 xml:space="preserve">
<g>
	<defs>
		<rect id="SVGID_1_" x="210.552" y="211.538" width="1133.86" height="1133.86"/>
	</defs>
	<clipPath id="SVGID_2_">
		<use xlink:href="#SVGID_1_"  overflow="visible"/>
	</clipPath>
	<g clip-path="url(#SVGID_2_)">
		<defs>
			<path id="SVGID_3_" d="M385.29,777.796c0,216.777,175.731,392.507,392.508,392.507c216.781,0,392.503-175.73,392.503-392.507
				c0-216.778-175.722-392.508-392.503-392.508C561.021,385.289,385.29,561.019,385.29,777.796"/>
		</defs>
		<clipPath id="SVGID_4_">
			<use xlink:href="#SVGID_3_"  overflow="visible"/>
		</clipPath>
		
			<radialGradient id="SVGID_5_" cx="210.5522" cy="1345.3975" r="1" gradientTransform="matrix(332.6928 403.6202 403.6202 -332.6928 -612360.3125 363280.4062)" gradientUnits="userSpaceOnUse">
			<stop  offset="0" style="stop-color:#7BC7EF"/>
			<stop  offset="0.6748" style="stop-color:#7BC7EF"/>
			<stop  offset="0.8344" style="stop-color:#418BC8"/>
			<stop  offset="0.9509" style="stop-color:#2457A6"/>
			<stop  offset="1" style="stop-color:#2457A6"/>
		</radialGradient>
		<polygon clip-path="url(#SVGID_4_)" fill="url(#SVGID_5_)" points="852.719,0 1555.591,852.72 702.873,1555.592 0,702.873 		"/>
	</g>
	<g clip-path="url(#SVGID_2_)">
		<defs>
			<rect id="SVGID_6_" x="210.552" y="211.538" width="1133.86" height="1133.86"/>
		</defs>
		<clipPath id="SVGID_7_">
			<use xlink:href="#SVGID_6_"  overflow="visible"/>
		</clipPath>
		<g opacity="0.3" clip-path="url(#SVGID_7_)">
			<g>
				<defs>
					<rect id="SVGID_8_" x="385.29" y="385.289" width="733.272" height="545.264"/>
				</defs>
				<clipPath id="SVGID_9_">
					<use xlink:href="#SVGID_8_"  overflow="visible"/>
				</clipPath>
				<g clip-path="url(#SVGID_9_)">
					<defs>
						<path id="SVGID_10_" d="M1118.562,583.106c-33.002,132.107-187.623,262.827-396.196,319.792
							C611.773,933.11,503.74,937.68,412.333,920.934c-17.39-44.361-27.043-92.607-27.043-143.138
							c0-216.776,175.731-392.507,392.508-392.507C923.705,385.289,1050.914,464.955,1118.562,583.106"/>
					</defs>
					<clipPath id="SVGID_11_">
						<use xlink:href="#SVGID_10_"  overflow="visible"/>
					</clipPath>
					
						<radialGradient id="SVGID_12_" cx="210.5522" cy="1345.3975" r="1" gradientTransform="matrix(387.1292 0 0 -387.1292 -80736.125 521609.8438)" gradientUnits="userSpaceOnUse">
						<stop  offset="0" style="stop-color:#FFFFFF"/>
						<stop  offset="0.908" style="stop-color:#FFFFFF"/>
						<stop  offset="1" style="stop-color:#3072A8"/>
					</radialGradient>
					<rect x="385.291" y="385.289" clip-path="url(#SVGID_11_)" fill="url(#SVGID_12_)" width="733.271" height="552.391"/>
				</g>
			</g>
		</g>
		<g opacity="0.8" clip-path="url(#SVGID_7_)">
			<g>
				<defs>
					<rect id="SVGID_13_" x="387.57" y="551.841" width="779.984" height="465.295"/>
				</defs>
				<clipPath id="SVGID_14_">
					<use xlink:href="#SVGID_13_"  overflow="visible"/>
				</clipPath>
				<path clip-path="url(#SVGID_14_)" fill="#3072A8" d="M725.059,903.445c7.826,0,14.67-4.07,18.625-10.186l0.214,0.106
					l1.186-2.691c0.218-0.464,0.432-0.917,0.614-1.397l83.088-188.627c2.489-3.609,3.956-7.973,3.956-12.693
					c0-12.399-10.045-22.443-22.435-22.443c-9.795,0-18.044,6.32-21.101,15.084l-84.516,191.862
					c-0.039,0.098-0.079,0.188-0.119,0.275l-0.192,0.436l0.049,0.027c-0.977,2.497-1.564,5.199-1.564,8.053
					C702.865,893.509,712.802,903.445,725.059,903.445"/>
				<path clip-path="url(#SVGID_14_)" fill="#3072A8" d="M1012,784.894c62.591-43.864,95.923-54.352,155.554-51.917
					c-1.75-15.074-4.363-29.864-7.776-44.37c-17.421-1.093-98.394-1.867-187.49,68.164c-22.656-14.905-45.056-26.22-66.663-34.771
					l-19.216,40.513c15.065,5.751,30.575,13.048,46.361,22.381c-18.221,10.772-36.104,18.896-53.321,24.976l19.227,40.531
					c23.73-8.826,48.512-20.879,73.612-37.402c84.599,66.502,161.909,69.16,184.405,68.316c3.92-14.516,7.066-29.332,9.307-44.46
					C1107.336,839.059,1074.041,828.357,1012,784.894"/>
				<path clip-path="url(#SVGID_14_)" fill="#3072A8" d="M593.45,583.155c0.2,0.524,0.431,1.022,0.671,1.52l75.128,170.567
					l23.999-55.428l-59.427-134.907c-0.48-0.906-1.054-1.777-1.694-2.622c-3.804-6.239-10.608-10.443-18.448-10.443
					c-11.963,0-21.665,9.706-21.665,21.669c0,0.373,0.094,0.729,0.111,1.102c-0.017,0.365-0.111,0.694-0.111,1.067
					c0,2.489,0.511,4.853,1.311,7.058l-0.048,0.026L593.45,583.155z"/>
				<path clip-path="url(#SVGID_14_)" fill="#3072A8" d="M399.054,879.643c80.724,1.103,133.596-23.678,178.317-65.311
					c17.608,13.021,36.496,23.145,55.668,31.091l18.412-38.397c-15.088-5.662-29.456-12.896-42.1-22.132
					c13.178-9.635,28.247-17.048,44.037-22.808l-18.042-38.664c-19.964,8.089-39.66,18.47-57.975,32.016
					c-44.721-41.633-97.593-66.414-178.317-65.311c0,0-1.44-0.009-3.648,0.302c-3.48,15.11-6.16,30.531-7.836,46.255
					c8.991-1.663,76.782-11.688,154.679,48.21c-71.507,54.966-135.826,51.036-153.066,48.726
					c2.191,15.669,5.271,31.038,9.253,46.051C398.823,879.67,399.054,879.643,399.054,879.643"/>
				<path clip-path="url(#SVGID_14_)" fill="#3072A8" d="M940.076,986.623c-0.195-0.525-0.426-1.022-0.675-1.529l-75.124-170.558
					l-23.998,55.419l59.427,134.915c0.835,1.591,1.92,3.049,3.2,4.347c4.018,4.799,9.973,7.92,16.719,7.92
					c12.088,0,21.891-9.805,21.891-21.893c0-0.195-0.053-0.383-0.061-0.586c0.008-0.196,0.061-0.374,0.061-0.569
					c0-2.489-0.515-4.845-1.314-7.058l0.053-0.018L940.076,986.623z"/>
				<path clip-path="url(#SVGID_14_)" fill="#3072A8" d="M948.894,577.574c0-12.604-10.213-22.816-22.809-22.816
					c-7.92,0-14.879,4.035-18.977,10.159l-0.025-0.009l-0.107,0.249c-1.244,1.92-2.15,4.062-2.781,6.319L770.487,875.021
					l0.072,0.035c-1.765,3.199-2.854,6.826-2.854,10.736c0,12.391,10.044,22.443,22.443,22.443c10.746,0,19.715-7.572,21.901-17.67
					l131.448-298.416C946.814,588.186,948.894,583.146,948.894,577.574"/>
				<path clip-path="url(#SVGID_14_)" fill="#3072A8" d="M608.182,1015.768c10.635,0,19.501-7.431,21.794-17.377l130.392-296.025
					c3.182-3.893,5.164-8.8,5.164-14.222c0-12.496-10.133-22.629-22.625-22.629c-7.924,0-14.875,4.088-18.919,10.257l-0.262-0.115
					l-1.409,3.199c-0.129,0.285-0.262,0.569-0.378,0.853L588.095,983.574c-0.303,0.621-0.582,1.235-0.827,1.884l-0.142,0.32
					l0.035,0.018c-0.853,2.373-1.399,4.897-1.399,7.563C585.762,1005.741,595.801,1015.768,608.182,1015.768"/>
			</g>
		</g>
	</g>
	<g clip-path="url(#SVGID_2_)">
		<defs>
			<path id="SVGID_15_" d="M1173.085,829.882c0.003,0,0.003,0,0.007,0C1173.089,829.882,1173.087,829.882,1173.085,829.882
				 M840.261,863.266l59.426,134.917c0.836,1.591,1.921,3.048,3.201,4.346c4.018,4.799,9.973,7.919,16.709,7.919
				c12.088,0,21.893-9.804,21.893-21.892c0-0.195-0.054-0.381-0.062-0.587c0.009-0.195,0.062-0.372,0.062-0.568
				c0-2.488-0.507-4.843-1.307-7.057l0.045-0.019l-0.17-0.392c-0.204-0.524-0.436-1.021-0.676-1.528l-75.123-170.558
				L840.261,863.266z M1173.092,726.51c-0.004,0-0.005,0-0.009,0C1173.086,726.51,1173.089,726.51,1173.092,726.51 M399.032,683.438
				c0,0-23.012-0.168-25.963,20.479c-2.947,20.648,15.167,25.954,15.167,25.954s70.32-15.999,153.99,48.334
				c-83.67,64.316-157.727,47.989-157.727,47.989s-18.746,5.235-9.897,26.859c8.848,21.635,24.43,19.901,24.43,19.901
				c80.723,1.103,133.595-23.679,178.317-65.311c17.607,13.021,36.495,23.145,55.667,31.091l18.412-38.397
				c-15.088-5.662-29.455-12.897-42.1-22.132c13.177-9.635,28.248-17.047,44.038-22.807l-18.044-38.664
				c-19.963,8.088-39.659,18.469-57.973,32.015c-43.764-40.74-95.343-65.344-173.178-65.346
				C402.467,683.402,400.761,683.414,399.032,683.438 M972.27,750.083c-22.665-14.906-45.062-26.22-66.663-34.771l-19.216,40.513
				c15.058,5.75,30.575,13.047,46.353,22.38c-18.213,10.773-36.096,18.897-53.321,24.977l19.235,40.531
				c23.73-8.827,48.513-20.88,73.612-37.403c100.633,79.106,190.974,67.872,190.974,67.872s10.568-9.707,15.457-18.24
				c10.332-18.04-6.167-25.996-5.615-26.06c-63.225,3.332-96.578-6.475-161.111-51.677c64.533-45.22,97.885-55.016,161.109-51.694
				c-0.445-0.056,14.167-4.971,9.288-22.576c-4.925-17.697-19.128-21.724-19.128-21.724s-4.422-0.549-12.396-0.549
				C1122.773,681.661,1050.644,688.474,972.27,750.083 M723.966,669.083l-0.263-0.116l-1.408,3.2
				c-0.129,0.284-0.262,0.569-0.378,0.854L588.072,976.885c-0.302,0.624-0.582,1.236-0.826,1.885l-0.143,0.321l0.036,0.017
				c-0.853,2.373-1.4,4.898-1.4,7.564c0,12.382,10.04,22.406,22.421,22.406c10.635,0,19.501-7.43,21.794-17.376l130.392-296.026
				c3.181-3.893,5.163-8.799,5.163-14.221c0-12.497-10.132-22.629-22.624-22.629C734.96,658.827,728.01,662.915,723.966,669.083
				 M789.189,673.91l-84.52,191.863c-0.04,0.098-0.08,0.187-0.12,0.276l-0.191,0.435l0.049,0.027
				c-0.977,2.497-1.565,5.2-1.565,8.052c0,12.258,9.938,22.196,22.195,22.196c7.826,0,14.67-4.072,18.625-10.188l0.214,0.106
				l1.186-2.693c0.218-0.462,0.431-0.915,0.614-1.395l83.083-188.628c2.488-3.608,3.964-7.972,3.964-12.692
				c0-12.4-10.044-22.443-22.434-22.443C800.486,658.827,792.246,665.146,789.189,673.91 M907.084,558.228l-0.02-0.008l-0.106,0.249
				c-1.254,1.919-2.151,4.062-2.79,6.319L770.465,868.331l0.071,0.036c-1.764,3.201-2.853,6.827-2.853,10.738
				c0,12.39,10.044,22.443,22.438,22.443c10.746,0,19.714-7.574,21.909-17.67l131.44-298.417c3.325-3.964,5.405-9.003,5.405-14.576
				c0-12.605-10.223-22.817-22.816-22.817C918.14,548.068,911.181,552.104,907.084,558.228 M591.992,566.823
				c0,0.373,0.093,0.728,0.111,1.102c-0.018,0.364-0.111,0.693-0.111,1.066c0,2.489,0.511,4.854,1.311,7.058l-0.049,0.026
				l0.173,0.392c0.201,0.524,0.431,1.022,0.672,1.52l75.128,170.566l23.999-55.427L633.798,558.22
				c-0.48-0.907-1.053-1.778-1.693-2.622c-3.804-6.24-10.609-10.444-18.448-10.444C601.694,545.153,591.992,554.859,591.992,566.823
				"/>
		</defs>
		<clipPath id="SVGID_16_">
			<use xlink:href="#SVGID_15_"  overflow="visible"/>
		</clipPath>
		
			<linearGradient id="SVGID_17_" gradientUnits="userSpaceOnUse" x1="210.5522" y1="1345.3984" x2="211.5522" y2="1345.3984" gradientTransform="matrix(811.1406 0 0 -811.1406 -170415.4375 1092084.375)">
			<stop  offset="0" style="stop-color:#8BA2B2"/>
			<stop  offset="0.0552" style="stop-color:#BADBF1"/>
			<stop  offset="0.2025" style="stop-color:#FFFFFF"/>
			<stop  offset="0.8354" style="stop-color:#FFFFFF"/>
			<stop  offset="0.9325" style="stop-color:#BADBF1"/>
			<stop  offset="0.9939" style="stop-color:#8BA2B2"/>
			<stop  offset="1" style="stop-color:#8BA2B2"/>
		</linearGradient>
		<rect x="365.753" y="545.153" clip-path="url(#SVGID_16_)" fill="url(#SVGID_17_)" width="823.279" height="465.294"/>
	</g>
	<g clip-path="url(#SVGID_2_)">
		<defs>
			<rect id="SVGID_18_" x="210.552" y="211.538" width="1133.86" height="1133.86"/>
		</defs>
		<clipPath id="SVGID_19_">
			<use xlink:href="#SVGID_18_"  overflow="visible"/>
		</clipPath>
		<g opacity="0.5" clip-path="url(#SVGID_19_)">
			<g>
				<defs>
					<rect id="SVGID_20_" x="378.952" y="547.812" width="804.417" height="462.636"/>
				</defs>
				<clipPath id="SVGID_21_">
					<use xlink:href="#SVGID_20_"  overflow="visible"/>
				</clipPath>
				<path clip-path="url(#SVGID_21_)" fill="#CCDBE3" d="M626.799,551.518c0.64,0.844,1.213,1.715,1.693,2.622l59.428,134.907
					l-22.261,51.409l3.568,8.098l23.999-55.428L633.799,558.22c-0.48-0.907-1.054-1.778-1.693-2.622
					c-2.005-3.289-4.871-5.947-8.249-7.787C624.946,548.949,625.972,550.158,626.799,551.518"/>
				<path clip-path="url(#SVGID_21_)" fill="#CCDBE3" d="M382.93,725.791c0,0-1.737-0.586-3.978-1.84
					c4.316,4.373,9.285,5.92,9.285,5.92s67.284-15.093,148.497,44.388c0.062-0.045,0.124-0.089,0.187-0.134
					C453.25,709.792,382.93,725.791,382.93,725.791"/>
				<path clip-path="url(#SVGID_21_)" fill="#CCDBE3" d="M635.323,716.733c-0.947,0.382-1.88,0.844-2.827,1.235l15.564,33.349
					c-15.79,5.76-30.86,13.173-44.037,22.808c1.84,1.342,3.791,2.56,5.697,3.813c13.088-9.493,28.007-16.834,43.646-22.541
					L635.323,716.733z"/>
				<path clip-path="url(#SVGID_21_)" fill="#CCDBE3" d="M572.469,744.376c-5.426-4.835-10.991-9.421-16.706-13.759
					c5.56,4.444,10.982,9.119,16.279,14.052C572.18,744.563,572.331,744.483,572.469,744.376"/>
				<path clip-path="url(#SVGID_21_)" fill="#CCDBE3" d="M1177.056,699.854c4.924,17.706-9.893,22.576-9.27,22.576
					c-63.241-3.324-96.581,6.471-161.119,51.695c1.929,1.351,3.751,2.568,5.627,3.857c64.324-45.019,97.673-54.787,160.798-51.472
					c-0.622,0,14.186-4.871,9.279-22.576c-3.093-11.128-9.849-16.844-14.452-19.555
					C1171.457,687.705,1175.039,692.574,1177.056,699.854"/>
				<path clip-path="url(#SVGID_21_)" fill="#CCDBE3" d="M887.156,754.207l-0.765,1.618c13.048,4.986,26.452,11.216,40.068,18.843
					c0.329-0.187,0.649-0.347,0.978-0.543C913.767,766.037,900.31,759.558,887.156,754.207"/>
				<path clip-path="url(#SVGID_21_)" fill="#CCDBE3" d="M651.428,800.337c-2.053-0.772-4.053-1.645-6.075-2.472l-17.643,36.789
					c-19.172-7.945-38.06-18.07-55.668-31.09c-44.721,41.632-97.593,66.412-178.317,65.311c0,0-4.889,0.542-10.741-2.782
					c7.87,7.724,16.048,6.861,16.048,6.861c80.723,1.103,133.595-23.679,178.316-65.312c17.608,13.021,36.496,23.146,55.668,31.092
					L651.428,800.337z"/>
				<path clip-path="url(#SVGID_21_)" fill="#CCDBE3" d="M940.183,980.343l0.045-0.018l-0.17-0.392
					c-0.204-0.523-0.436-1.021-0.676-1.529l-75.123-170.557l-1.742,4.018l71.561,162.461c0.239,0.506,0.471,1.004,0.666,1.528
					l0.178,0.392l-0.053,0.018c0.799,2.213,1.314,4.568,1.314,7.057c0,0.195-0.053,0.373-0.053,0.568
					c0,0.205,0.053,0.393,0.053,0.588c0,12.088-9.795,21.891-21.883,21.891c-3.733,0-7.182-1.021-10.23-2.684
					c3.965,4.089,9.377,6.764,15.527,6.764c12.088,0,21.893-9.804,21.893-21.892c0-0.195-0.054-0.382-0.062-0.587
					c0.009-0.195,0.062-0.373,0.062-0.568C941.49,984.912,940.983,982.557,940.183,980.343"/>
				<path clip-path="url(#SVGID_21_)" fill="#CCDBE3" d="M1173.092,829.881c-0.188,0.01-0.355,0.01-0.533,0.019
					c3.608,4.054,7.004,11.199,0.835,21.963c-4.889,8.532-15.448,18.239-15.448,18.239s-90.358,11.234-190.991-67.871
					c-24.105,15.874-47.898,27.535-70.769,36.264l2.47,5.218c23.732-8.826,48.514-20.879,73.614-37.402
					c100.634,79.106,190.974,67.872,190.974,67.872s10.568-9.707,15.457-18.24C1189.074,837.828,1172.399,829.881,1173.092,829.881"
					/>
				<path clip-path="url(#SVGID_21_)" fill="#CCDBE3" d="M832.723,681.269c0-8.399-4.666-15.625-11.483-19.474
					c3.805,4.017,6.178,9.412,6.178,15.394c0,4.72-1.467,9.084-3.955,12.693L740.369,878.51c-0.182,0.479-0.396,0.934-0.613,1.395
					l-1.187,2.693l-0.213-0.105c-3.955,6.114-10.8,10.186-18.626,10.186c-3.942,0-7.586-1.111-10.794-2.916
					c4.048,4.285,9.741,6.996,16.101,6.996c7.826,0,14.67-4.072,18.625-10.187l0.214,0.106l1.186-2.693
					c0.218-0.462,0.432-0.915,0.614-1.395l83.083-188.629C831.248,690.353,832.723,685.989,832.723,681.269"/>
				<path clip-path="url(#SVGID_21_)" fill="#CCDBE3" d="M948.876,570.885c0-8.515-4.721-15.848-11.627-19.768
					c3.894,4.089,6.311,9.591,6.311,15.688c0,5.573-2.07,10.613-5.386,14.577L806.725,879.799
					c-2.195,10.097-11.155,17.67-21.909,17.67c-4,0-7.697-1.139-10.951-2.969c4.089,4.319,9.84,7.048,16.257,7.048
					c10.746,0,19.714-7.573,21.909-17.67l131.441-298.416C946.796,581.497,948.876,576.458,948.876,570.885"/>
				<path clip-path="url(#SVGID_21_)" fill="#CCDBE3" d="M765.51,681.456c0-8.453-4.688-15.732-11.555-19.625
					c3.849,4.062,6.249,9.51,6.249,15.545c0,5.422-1.982,10.329-5.164,14.222L624.648,987.623
					c-2.293,9.945-11.159,17.376-21.794,17.376c-3.995,0-7.697-1.129-10.946-2.96c4.089,4.311,9.835,7.039,16.252,7.039
					c10.635,0,19.501-7.43,21.794-17.376l130.392-296.025C763.528,691.784,765.51,686.877,765.51,681.456"/>
			</g>
		</g>
		<path clip-path="url(#SVGID_19_)" fill="#FFFFFF" d="M704.549,866.049l-0.191,0.435l0.049,0.026
			c-0.978,2.498-1.565,5.2-1.565,8.053c0,3.236,0.729,6.293,1.978,9.066l84.369-191.516c3.057-8.764,11.297-15.084,21.1-15.084
			c9.129,0,16.959,5.476,20.461,13.315c1.236-2.782,1.974-5.831,1.974-9.075c0-12.399-10.044-22.443-22.435-22.443
			c-9.803,0-18.043,6.32-21.1,15.084l-84.52,191.863C704.629,865.87,704.589,865.959,704.549,866.049"/>
		<path clip-path="url(#SVGID_19_)" fill="#FFFFFF" d="M587.246,978.77l-0.143,0.32l0.036,0.018c-0.853,2.373-1.4,4.897-1.4,7.564
			c0,3.279,0.742,6.363,2.005,9.172c0.111-0.248,0.209-0.506,0.329-0.756l133.844-303.863c0.116-0.285,0.249-0.569,0.378-0.854
			l1.409-3.2l0.262,0.116c4.044-6.169,10.995-10.257,18.919-10.257c9.199,0,17.088,5.52,20.62,13.404
			c1.241-2.747,2.005-5.751,2.005-8.978c0-12.497-10.133-22.629-22.625-22.629c-7.924,0-14.875,4.088-18.919,10.256l-0.262-0.115
			l-1.409,3.2c-0.129,0.284-0.262,0.569-0.378,0.853L588.073,976.885C587.77,977.508,587.49,978.121,587.246,978.77"/>
		<path clip-path="url(#SVGID_19_)" fill="#FFFFFF" d="M644.126,815.562l7.302-15.227c-9.671-3.625-18.986-7.99-27.798-13.021
			c-4.938,2.809-9.764,5.777-14.301,9.093C619.906,804.133,631.724,810.39,644.126,815.562"/>
		<path clip-path="url(#SVGID_19_)" fill="#FFFFFF" d="M886.747,818.603c14.95-5.733,30.335-12.933,45.997-22.194
			c-5.591-3.307-11.137-6.275-16.656-9.093c-12.462,6.373-24.729,11.653-36.665,15.866L886.747,818.603z"/>
		<path clip-path="url(#SVGID_19_)" fill="#FFFFFF" d="M886.391,755.824c2.399,0.916,4.817,1.938,7.243,2.933l11.973-25.243
			c21.6,8.551,43.998,19.866,66.663,34.771c100.634-79.106,190.974-67.871,190.974-67.871s12.391,3.689,18.008,18.701
			c1.955-3.466,3.014-8.346,1.12-15.181c-4.924-17.696-19.128-21.723-19.128-21.723s-90.34-11.235-190.974,67.871
			c-22.665-14.905-45.063-26.22-66.663-34.771L886.391,755.824z"/>
		<path clip-path="url(#SVGID_19_)" fill="#FFFFFF" d="M770.536,868.368c-1.764,3.2-2.853,6.826-2.853,10.737
			c0,3.342,0.778,6.488,2.089,9.332c0.275-0.613,0.44-1.279,0.764-1.866l-0.071-0.036l133.702-303.544
			c0.641-2.258,1.537-4.4,2.791-6.32l0.106-0.249l0.019,0.009c4.098-6.124,11.057-10.159,18.977-10.159
			c9.306,0,17.287,5.591,20.834,13.59c1.217-2.755,1.982-5.76,1.982-8.977c0-12.604-10.223-22.816-22.816-22.816
			c-7.92,0-14.879,4.035-18.977,10.159l-0.019-0.009l-0.106,0.249c-1.254,1.92-2.15,4.062-2.791,6.319L770.465,868.332
			L770.536,868.368z"/>
		<path clip-path="url(#SVGID_19_)" fill="#FFFFFF" d="M940.183,980.343l0.045-0.018l-0.17-0.392
			c-0.204-0.523-0.436-1.021-0.676-1.529l-75.123-170.557l-23.998,55.418l3.963,9.021l20.035-46.236l75.123,170.558
			c0.107,0.214,0.188,0.436,0.285,0.649c1.164-2.667,1.822-5.609,1.822-8.702c0-0.195-0.054-0.382-0.062-0.587
			c0.009-0.195,0.062-0.373,0.062-0.568C941.49,984.912,940.983,982.557,940.183,980.343"/>
		<path clip-path="url(#SVGID_19_)" fill="#FFFFFF" d="M593.303,576.049l-0.049,0.026l0.174,0.391
			c0.053,0.143,0.12,0.267,0.182,0.41c3.222-7.92,10.972-13.52,20.047-13.52c7.84,0,14.644,4.205,18.448,10.444
			c0.64,0.845,1.213,1.716,1.693,2.622l55.454,125.885l3.973-9.181l-59.427-134.907c-0.48-0.907-1.053-1.778-1.693-2.622
			c-3.804-6.24-10.608-10.444-18.448-10.444c-11.963,0-21.665,9.706-21.665,21.67c0,0.373,0.093,0.728,0.111,1.102
			c-0.018,0.364-0.111,0.693-0.111,1.066C591.992,571.48,592.503,573.844,593.303,576.049"/>
		<path clip-path="url(#SVGID_19_)" fill="#FFFFFF" d="M1173.092,829.881c-58.716,3.094-91.71-5.182-147.795-42.574
			c-4.302,2.871-8.71,5.875-13.323,9.102c64.537,45.206,97.887,55.01,161.118,51.677c-0.338,0,3.644,1.981,6.427,6.222
			C1187.971,837.365,1172.425,829.881,1173.092,829.881"/>
		<path clip-path="url(#SVGID_19_)" fill="#FFFFFF" d="M384.499,844.396c0,0,74.058,16.328,157.728-47.988
			c-4.276-3.289-8.498-6.23-12.706-9.11c-78.311,53.463-140.227,38.903-141.347,38.335c-0.408-2.133-23.341,3.662-13.812,26.736
			C377.869,846.289,384.499,844.396,384.499,844.396"/>
		<path clip-path="url(#SVGID_19_)" fill="#FFFFFF" d="M399.032,701.641c80.724-1.102,133.596,23.678,178.317,65.311
			c18.314-13.545,38.011-23.927,57.974-32.016l10.875,23.306c2.382-0.96,4.746-1.965,7.168-2.845l-18.043-38.664
			c-19.963,8.089-39.66,18.47-57.974,32.016c-44.721-41.633-97.593-66.414-178.317-65.311c0,0-23.012-0.169-25.963,20.478
			c-0.791,5.556-0.138,9.955,1.169,13.519C379.731,701.552,399.032,701.641,399.032,701.641"/>
		<g opacity="0.5" clip-path="url(#SVGID_19_)">
			<g>
				<defs>
					<rect id="SVGID_22_" x="372.229" y="545.153" width="811.13" height="454.54"/>
				</defs>
				<clipPath id="SVGID_23_">
					<use xlink:href="#SVGID_22_"  overflow="visible"/>
				</clipPath>
				<path clip-path="url(#SVGID_23_)" fill="#FFFFFF" d="M587.246,978.77l-0.143,0.32l0.036,0.018c-0.853,2.373-1.4,4.897-1.4,7.564
					c0,4.266,1.258,8.213,3.324,11.607l132.854-301.616c0.116-0.285,0.249-0.569,0.378-0.853l1.409-3.2l0.262,0.116
					c4.044-6.169,10.995-10.258,18.919-10.258c8.114,0,15.181,4.311,19.172,10.738c2.142-3.422,3.453-7.404,3.453-11.751
					c0-12.497-10.133-22.629-22.625-22.629c-7.924,0-14.875,4.088-18.919,10.256l-0.262-0.115l-1.409,3.2
					c-0.129,0.284-0.262,0.569-0.378,0.853L588.073,976.885C587.77,977.508,587.49,978.121,587.246,978.77"/>
				<path clip-path="url(#SVGID_23_)" fill="#FFFFFF" d="M704.549,866.049l-0.191,0.435l0.049,0.026
					c-0.978,2.498-1.565,5.2-1.565,8.053c0,4.231,1.249,8.143,3.303,11.511l83.043-188.521c3.057-8.763,11.297-15.083,21.1-15.083
					c8.035,0,15.032,4.258,18.986,10.613c2.15-3.44,3.448-7.457,3.448-11.813c0-12.399-10.044-22.443-22.435-22.443
					c-9.803,0-18.043,6.32-21.1,15.084l-84.52,191.863C704.629,865.87,704.589,865.959,704.549,866.049"/>
				<path clip-path="url(#SVGID_23_)" fill="#FFFFFF" d="M888.933,823.215c14.266-5.6,28.914-12.559,43.811-21.367
					c-7.431-4.391-14.799-8.301-22.088-11.848c-10.595,5.164-21.039,9.582-31.233,13.182L888.933,823.215z"/>
				<path clip-path="url(#SVGID_23_)" fill="#FFFFFF" d="M886.391,755.824c3.11,1.191,6.257,2.489,9.403,3.813l9.812-20.683
					c21.6,8.551,43.998,19.865,66.663,34.771c100.634-79.106,190.974-67.871,190.974-67.871s10.568,3.049,16.621,15.252
					c2.738-3.484,4.801-8.879,2.507-17.172c-4.924-17.696-19.128-21.723-19.128-21.723s-90.34-11.235-190.974,67.871
					c-22.665-14.905-45.063-26.22-66.663-34.771L886.391,755.824z"/>
				<path clip-path="url(#SVGID_23_)" fill="#FFFFFF" d="M641.945,820.113l9.483-19.776c-7.905-2.969-15.589-6.399-22.958-10.284
					c-6.689,3.52-13.128,7.404-19.141,11.795C619.288,809.119,630.337,815.118,641.945,820.113"/>
				<path clip-path="url(#SVGID_23_)" fill="#FFFFFF" d="M770.536,868.368c-1.764,3.2-2.853,6.826-2.853,10.737
					c0,4.275,1.258,8.221,3.329,11.625l133.155-302.3c0.641-2.257,1.537-4.399,2.791-6.319l0.106-0.249l0.019,0.009
					c4.098-6.124,11.057-10.159,18.977-10.159c8.238,0,15.385,4.408,19.402,10.95c2.125-3.44,3.414-7.44,3.414-11.777
					c0-12.604-10.223-22.816-22.816-22.816c-7.92,0-14.879,4.035-18.977,10.159l-0.019-0.009l-0.106,0.249
					c-1.254,1.92-2.15,4.062-2.791,6.319L770.465,868.332L770.536,868.368z"/>
				<path clip-path="url(#SVGID_23_)" fill="#FFFFFF" d="M940.183,980.343l0.045-0.018l-0.17-0.392
					c-0.204-0.523-0.436-1.021-0.676-1.529l-75.123-170.557l-23.998,55.418l5.154,11.725l18.844-43.5l74.093,168.203
					c1.946-3.271,3.138-7.049,3.138-11.138c0-0.195-0.054-0.382-0.062-0.587c0.009-0.195,0.062-0.373,0.062-0.568
					C941.49,984.912,940.983,982.557,940.183,980.343"/>
				<path clip-path="url(#SVGID_23_)" fill="#FFFFFF" d="M1173.092,829.881c-57.241,3.014-90.065-4.826-143.636-39.854
					c-5.6,3.661-11.367,7.536-17.482,11.82c64.537,45.206,97.887,55.01,161.118,51.677c-0.275,0,2.204,1.289,4.631,3.946
					c0.329-0.506,0.685-1.021,0.978-1.529C1189.074,837.828,1172.399,829.881,1173.092,829.881"/>
				<path clip-path="url(#SVGID_23_)" fill="#FFFFFF" d="M375.811,855.693c3.622-4.408,8.688-5.857,8.688-5.857
					s74.058,16.328,157.728-47.988c-5.618-4.319-11.16-8.213-16.639-11.839c-76.6,50.343-141.089,36.185-141.089,36.185
					s-18.745,5.234-9.897,26.859C374.989,853.996,375.402,854.84,375.811,855.693"/>
				<path clip-path="url(#SVGID_23_)" fill="#FFFFFF" d="M593.303,576.049l-0.049,0.026l0.174,0.391
					c0.2,0.525,0.431,1.023,0.67,1.521l0.805,1.822c3.729-6.542,10.684-11.013,18.754-11.013c7.84,0,14.644,4.204,18.448,10.444
					c0.64,0.844,1.213,1.715,1.693,2.622l54.263,123.192l5.164-11.928l-59.427-134.907c-0.48-0.907-1.053-1.778-1.693-2.622
					c-3.804-6.24-10.608-10.444-18.448-10.444c-11.963,0-21.665,9.706-21.665,21.67c0,0.373,0.093,0.728,0.111,1.102
					c-0.018,0.364-0.111,0.693-0.111,1.066C591.992,571.48,592.503,573.844,593.303,576.049"/>
				<path clip-path="url(#SVGID_23_)" fill="#FFFFFF" d="M399.032,707.081c80.724-1.102,133.596,23.679,178.317,65.312
					c18.314-13.546,38.011-23.928,57.974-32.016l8.733,18.719c3.08-1.289,6.168-2.552,9.31-3.698l-18.043-38.664
					c-19.963,8.088-39.66,18.47-57.974,32.015c-44.721-41.632-97.593-66.413-178.317-65.311c0,0-23.012-0.169-25.963,20.479
					c-0.969,6.799,0.436,11.804,2.635,15.625C382.539,707.01,399.032,707.081,399.032,707.081"/>
			</g>
		</g>
		<g opacity="0.6" clip-path="url(#SVGID_19_)">
			<g>
				<defs>
					<rect id="SVGID_24_" x="513.046" y="418.762" width="532.703" height="311.73"/>
				</defs>
				<clipPath id="SVGID_25_">
					<use xlink:href="#SVGID_24_"  overflow="visible"/>
				</clipPath>
				<g clip-path="url(#SVGID_25_)">
					<defs>
						<path id="SVGID_26_" d="M1045.75,574.626c0,86.084-119.254,155.866-266.352,155.866
							c-147.102,0-266.352-69.782-266.352-155.866c0-86.083,119.25-155.865,266.352-155.865
							C926.496,418.762,1045.75,488.543,1045.75,574.626"/>
					</defs>
					<clipPath id="SVGID_27_">
						<use xlink:href="#SVGID_26_"  overflow="visible"/>
					</clipPath>
					<defs>
						<filter id="Adobe_OpacityMaskFilter" filterUnits="userSpaceOnUse" x="513.046" y="418.762" width="532.703" height="311.73">
							<feColorMatrix  type="matrix" values="1 0 0 0 0  0 1 0 0 0  0 0 1 0 0  0 0 0 1 0"/>
						</filter>
					</defs>
					<mask maskUnits="userSpaceOnUse" x="513.046" y="418.762" width="532.703" height="311.73" id="SVGID_28_">
						<g filter="url(#Adobe_OpacityMaskFilter)">
							
								<radialGradient id="SVGID_29_" cx="210.5522" cy="1345.3975" r="1" gradientTransform="matrix(455.2567 0 0 -455.2567 -95080.5234 613212.375)" gradientUnits="userSpaceOnUse">
								<stop  offset="0" style="stop-color:#000000"/>
								<stop  offset="0.2454" style="stop-color:#000000"/>
								<stop  offset="1" style="stop-color:#FFFFFF"/>
							</radialGradient>
							<rect x="513.046" y="418.763" clip-path="url(#SVGID_27_)" fill="url(#SVGID_29_)" width="532.703" height="311.731"/>
						</g>
					</mask>
					
						<radialGradient id="SVGID_30_" cx="210.5522" cy="1345.3975" r="1" gradientTransform="matrix(455.2568 0 0 -455.2568 -95080.5391 613212.5)" gradientUnits="userSpaceOnUse">
						<stop  offset="0" style="stop-color:#FFFFFF"/>
						<stop  offset="0.2454" style="stop-color:#FFFFFF"/>
						<stop  offset="1" style="stop-color:#FFFFFF"/>
					</radialGradient>
					
						<rect x="513.046" y="418.762" clip-path="url(#SVGID_27_)" mask="url(#SVGID_28_)" fill="url(#SVGID_30_)" width="532.703" height="311.73"/>
				</g>
			</g>
		</g>
	</g>
</g>
</svg>
